<?xml version="1.0" standalone="no"?>
<!DOCTYPE svg PUBLIC "-//W3C//DTD SVG 1.1//EN" "http://www.w3.org/Graphics/SVG/1.1/DTD/svg11.dtd">
<svg xmlns="http://www.w3.org/2000/svg" width="179" height="90" viewBox="0 0 179 90" fill="none">
<path d="M33.5988 84.605H30.8628L30.3588 86H29.4948L31.7628 79.763H32.7078L34.9668 86H34.1028L33.5988 84.605ZM33.3648 83.939L32.2308 80.771L31.0968 83.939H33.3648ZM37.9082 79.727C38.5922 79.727 39.1832 79.856 39.6812 80.114C40.1852 80.366 40.5692 80.729 40.8332 81.203C41.1032 81.677 41.2382 82.235 41.2382 82.877C41.2382 83.519 41.1032 84.077 40.8332 84.551C40.5692 85.019 40.1852 85.379 39.6812 85.631C39.1832 85.877 38.5922 86 37.9082 86H35.9552V79.727H37.9082ZM37.9082 85.325C38.7182 85.325 39.3362 85.112 39.7622 84.686C40.1882 84.254 40.4012 83.651 40.4012 82.877C40.4012 82.097 40.1852 81.488 39.7532 81.05C39.3272 80.612 38.7122 80.393 37.9082 80.393H36.7742V85.325H37.9082ZM47.5025 79.727L45.1355 86H44.1905L41.8235 79.727H42.6965L44.6675 85.136L46.6385 79.727H47.5025ZM55.6149 86L54.7959 85.172C54.4899 85.49 54.1629 85.727 53.8149 85.883C53.4669 86.033 53.0739 86.108 52.6359 86.108C52.2039 86.108 51.8199 86.03 51.4839 85.874C51.1539 85.718 50.8959 85.496 50.7099 85.208C50.5299 84.92 50.4399 84.584 50.4399 84.2C50.4399 83.762 50.5629 83.378 50.8089 83.048C51.0609 82.712 51.4299 82.448 51.9159 82.256C51.7239 82.028 51.5859 81.818 51.5019 81.626C51.4179 81.434 51.3759 81.224 51.3759 80.996C51.3759 80.732 51.4419 80.495 51.5739 80.285C51.7119 80.069 51.9069 79.901 52.1589 79.781C52.4109 79.661 52.7019 79.601 53.0319 79.601C53.3559 79.601 53.6379 79.664 53.8779 79.79C54.1179 79.916 54.2979 80.093 54.4179 80.321C54.5379 80.543 54.5919 80.792 54.5799 81.068H53.7609C53.7669 80.822 53.6979 80.63 53.5539 80.492C53.4099 80.348 53.2239 80.276 52.9959 80.276C52.7559 80.276 52.5609 80.345 52.4109 80.483C52.2669 80.615 52.1949 80.786 52.1949 80.996C52.1949 81.176 52.2429 81.35 52.3389 81.518C52.4409 81.686 52.6089 81.893 52.8429 82.139L54.7149 84.02L54.8769 83.768L55.4889 82.742H56.3709L55.6329 84.02C55.5309 84.2 55.4109 84.389 55.2729 84.587L56.6859 86H55.6149ZM52.6359 85.406C52.9599 85.406 53.2509 85.343 53.5089 85.217C53.7729 85.091 54.0219 84.896 54.2559 84.632L52.4109 82.778C51.6429 83.072 51.2589 83.537 51.2589 84.173C51.2589 84.527 51.3849 84.821 51.6369 85.055C51.8949 85.289 52.2279 85.406 52.6359 85.406ZM63.1557 86L61.6617 83.435H60.6717V86H59.8527V79.727H61.8777C62.3517 79.727 62.7507 79.808 63.0747 79.97C63.4047 80.132 63.6507 80.351 63.8127 80.627C63.9747 80.903 64.0557 81.218 64.0557 81.572C64.0557 82.004 63.9297 82.385 63.6777 82.715C63.4317 83.045 63.0597 83.264 62.5617 83.372L64.1367 86H63.1557ZM60.6717 82.778H61.8777C62.3217 82.778 62.6547 82.67 62.8767 82.454C63.0987 82.232 63.2097 81.938 63.2097 81.572C63.2097 81.2 63.0987 80.912 62.8767 80.708C62.6607 80.504 62.3277 80.402 61.8777 80.402H60.6717V82.778ZM66.1473 80.393V82.49H68.4333V83.165H66.1473V85.325H68.7033V86H65.3283V79.718H68.7033V80.393H66.1473ZM74.8745 86H74.0555L70.7615 81.005V86H69.9425V79.718H70.7615L74.0555 84.704V79.718H74.8745V86ZM80.1316 79.727V80.393H78.4216V86H77.6026V80.393H75.8836V79.727H80.1316ZM84.8478 84.605H82.1118L81.6078 86H80.7438L83.0118 79.763H83.9568L86.2158 86H85.3518L84.8478 84.605ZM84.6138 83.939L83.4798 80.771L82.3458 83.939H84.6138ZM88.0232 85.334H90.2192V86H87.2042V79.727H88.0232V85.334ZM96.3324 86.063C95.7504 86.063 95.2194 85.928 94.7394 85.658C94.2594 85.382 93.8784 85.001 93.5964 84.515C93.3204 84.023 93.1824 83.471 93.1824 82.859C93.1824 82.247 93.3204 81.698 93.5964 81.212C93.8784 80.72 94.2594 80.339 94.7394 80.069C95.2194 79.793 95.7504 79.655 96.3324 79.655C96.9204 79.655 97.4544 79.793 97.9344 80.069C98.4144 80.339 98.7924 80.717 99.0684 81.203C99.3444 81.689 99.4824 82.241 99.4824 82.859C99.4824 83.477 99.3444 84.029 99.0684 84.515C98.7924 85.001 98.4144 85.382 97.9344 85.658C97.4544 85.928 96.9204 86.063 96.3324 86.063ZM96.3324 85.352C96.7704 85.352 97.1634 85.25 97.5114 85.046C97.8654 84.842 98.1414 84.551 98.3394 84.173C98.5434 83.795 98.6454 83.357 98.6454 82.859C98.6454 82.355 98.5434 81.917 98.3394 81.545C98.1414 81.167 97.8684 80.876 97.5204 80.672C97.1724 80.468 96.7764 80.366 96.3324 80.366C95.8884 80.366 95.4924 80.468 95.1444 80.672C94.7964 80.876 94.5204 81.167 94.3164 81.545C94.1184 81.917 94.0194 82.355 94.0194 82.859C94.0194 83.357 94.1184 83.795 94.3164 84.173C94.5204 84.551 94.7964 84.842 95.1444 85.046C95.4984 85.25 95.8944 85.352 96.3324 85.352ZM101.365 79.727V83.696C101.365 84.254 101.5 84.668 101.77 84.938C102.046 85.208 102.427 85.343 102.913 85.343C103.393 85.343 103.768 85.208 104.038 84.938C104.314 84.668 104.452 84.254 104.452 83.696V79.727H105.271V83.687C105.271 84.209 105.166 84.65 104.956 85.01C104.746 85.364 104.461 85.628 104.101 85.802C103.747 85.976 103.348 86.063 102.904 86.063C102.46 86.063 102.058 85.976 101.698 85.802C101.344 85.628 101.062 85.364 100.852 85.01C100.648 84.65 100.546 84.209 100.546 83.687V79.727H101.365ZM110.498 79.727V80.393H108.788V86H107.969V80.393H106.25V79.727H110.498ZM113.459 79.727C114.143 79.727 114.734 79.856 115.232 80.114C115.736 80.366 116.12 80.729 116.384 81.203C116.654 81.677 116.789 82.235 116.789 82.877C116.789 83.519 116.654 84.077 116.384 84.551C116.12 85.019 115.736 85.379 115.232 85.631C114.734 85.877 114.143 86 113.459 86H111.506V79.727H113.459ZM113.459 85.325C114.269 85.325 114.887 85.112 115.313 84.686C115.739 84.254 115.952 83.651 115.952 82.877C115.952 82.097 115.736 81.488 115.304 81.05C114.878 80.612 114.263 80.393 113.459 80.393H112.325V85.325H113.459ZM120.713 86.063C120.131 86.063 119.6 85.928 119.12 85.658C118.64 85.382 118.259 85.001 117.977 84.515C117.701 84.023 117.563 83.471 117.563 82.859C117.563 82.247 117.701 81.698 117.977 81.212C118.259 80.72 118.64 80.339 119.12 80.069C119.6 79.793 120.131 79.655 120.713 79.655C121.301 79.655 121.835 79.793 122.315 80.069C122.795 80.339 123.173 80.717 123.449 81.203C123.725 81.689 123.863 82.241 123.863 82.859C123.863 83.477 123.725 84.029 123.449 84.515C123.173 85.001 122.795 85.382 122.315 85.658C121.835 85.928 121.301 86.063 120.713 86.063ZM120.713 85.352C121.151 85.352 121.544 85.25 121.892 85.046C122.246 84.842 122.522 84.551 122.72 84.173C122.924 83.795 123.026 83.357 123.026 82.859C123.026 82.355 122.924 81.917 122.72 81.545C122.522 81.167 122.249 80.876 121.901 80.672C121.553 80.468 121.157 80.366 120.713 80.366C120.269 80.366 119.873 80.468 119.525 80.672C119.177 80.876 118.901 81.167 118.697 81.545C118.499 81.917 118.4 82.355 118.4 82.859C118.4 83.357 118.499 83.795 118.697 84.173C118.901 84.551 119.177 84.842 119.525 85.046C119.879 85.25 120.275 85.352 120.713 85.352ZM127.788 86.063C127.206 86.063 126.675 85.928 126.195 85.658C125.715 85.382 125.334 85.001 125.052 84.515C124.776 84.023 124.638 83.471 124.638 82.859C124.638 82.247 124.776 81.698 125.052 81.212C125.334 80.72 125.715 80.339 126.195 80.069C126.675 79.793 127.206 79.655 127.788 79.655C128.376 79.655 128.91 79.793 129.39 80.069C129.87 80.339 130.248 80.717 130.524 81.203C130.8 81.689 130.938 82.241 130.938 82.859C130.938 83.477 130.8 84.029 130.524 84.515C130.248 85.001 129.87 85.382 129.39 85.658C128.91 85.928 128.376 86.063 127.788 86.063ZM127.788 85.352C128.226 85.352 128.619 85.25 128.967 85.046C129.321 84.842 129.597 84.551 129.795 84.173C129.999 83.795 130.101 83.357 130.101 82.859C130.101 82.355 129.999 81.917 129.795 81.545C129.597 81.167 129.324 80.876 128.976 80.672C128.628 80.468 128.232 80.366 127.788 80.366C127.344 80.366 126.948 80.468 126.6 80.672C126.252 80.876 125.976 81.167 125.772 81.545C125.574 81.917 125.475 82.355 125.475 82.859C125.475 83.357 125.574 83.795 125.772 84.173C125.976 84.551 126.252 84.842 126.6 85.046C126.954 85.25 127.35 85.352 127.788 85.352ZM135.323 86L133.829 83.435H132.839V86H132.02V79.727H134.045C134.519 79.727 134.918 79.808 135.242 79.97C135.572 80.132 135.818 80.351 135.98 80.627C136.142 80.903 136.223 81.218 136.223 81.572C136.223 82.004 136.097 82.385 135.845 82.715C135.599 83.045 135.227 83.264 134.729 83.372L136.304 86H135.323ZM132.839 82.778H134.045C134.489 82.778 134.822 82.67 135.044 82.454C135.266 82.232 135.377 81.938 135.377 81.572C135.377 81.2 135.266 80.912 135.044 80.708C134.828 80.504 134.495 80.402 134.045 80.402H132.839V82.778Z" fill="black"/>
<path d="M47.7924 54.06V64.36C47.7924 65.5067 47.4391 66.4267 46.7324 67.12C46.0258 67.8 45.0924 68.14 43.9324 68.14C42.7591 68.14 41.8191 67.7933 41.1124 67.1C40.4058 66.3933 40.0524 65.4333 40.0524 64.22H41.8724C41.8858 64.9 42.0591 65.4533 42.3924 65.88C42.7391 66.3067 43.2524 66.52 43.9324 66.52C44.6124 66.52 45.1191 66.32 45.4524 65.92C45.7858 65.5067 45.9524 64.9867 45.9524 64.36V54.06H47.7924ZM59.6179 64.9H53.5379L52.4179 68H50.4979L55.5379 54.14H57.6379L62.6579 68H60.7379L59.6179 64.9ZM59.0979 63.42L56.5779 56.38L54.0579 63.42H59.0979ZM66.6745 66.52H71.5545V68H64.8545V54.06H66.6745V66.52ZM81.7273 64.9H75.6473L74.5273 68H72.6073L77.6473 54.14H79.7473L84.7673 68H82.8473L81.7273 64.9ZM81.2073 63.42L78.6873 56.38L76.1673 63.42H81.2073ZM93.9438 60.82C94.4505 60.9 94.9105 61.1067 95.3238 61.44C95.7505 61.7733 96.0838 62.1867 96.3238 62.68C96.5772 63.1733 96.7038 63.7 96.7038 64.26C96.7038 64.9667 96.5238 65.6067 96.1638 66.18C95.8038 66.74 95.2772 67.1867 94.5838 67.52C93.9038 67.84 93.0972 68 92.1638 68H86.9638V54.06H91.9638C92.9105 54.06 93.7172 54.22 94.3838 54.54C95.0505 54.8467 95.5505 55.2667 95.8838 55.8C96.2172 56.3333 96.3838 56.9333 96.3838 57.6C96.3838 58.4267 96.1572 59.1133 95.7038 59.66C95.2638 60.1933 94.6772 60.58 93.9438 60.82ZM88.7838 60.08H91.8438C92.6972 60.08 93.3572 59.88 93.8238 59.48C94.2905 59.08 94.5238 58.5267 94.5238 57.82C94.5238 57.1133 94.2905 56.56 93.8238 56.16C93.3572 55.76 92.6838 55.56 91.8038 55.56H88.7838V60.08ZM92.0038 66.5C92.9105 66.5 93.6172 66.2867 94.1238 65.86C94.6305 65.4333 94.8838 64.84 94.8838 64.08C94.8838 63.3067 94.6172 62.7 94.0838 62.26C93.5505 61.8067 92.8372 61.58 91.9438 61.58H88.7838V66.5H92.0038ZM101.049 54.06V68H99.2295V54.06H101.049ZM113.911 54.06L109.371 62.74V68H107.551V62.74L102.991 54.06H105.011L108.451 61.12L111.891 54.06H113.911ZM124.071 64.9H117.991L116.871 68H114.951L119.991 54.14H122.091L127.111 68H125.191L124.071 64.9ZM123.551 63.42L121.031 56.38L118.511 63.42H123.551Z" fill="black"/>
<path d="M68.0573 0L0 86L68.0573 10.9787L87.8685 28.1122L77.3802 48.4062L106.048 18.9633L179 86L106.048 6.15474L90.6654 23.6209L68.0573 0Z" fill="#008CD8"/>
</svg>